<?xml version="1.0" encoding="UTF-8" standalone="no"?>
<svg
   xmlns:dc="http://purl.org/dc/elements/1.1/"
   xmlns:cc="http://creativecommons.org/ns#"
   xmlns:rdf="http://www.w3.org/1999/02/22-rdf-syntax-ns#"
   xmlns:svg="http://www.w3.org/2000/svg"
   xmlns="http://www.w3.org/2000/svg"
   xmlns:sodipodi="http://sodipodi.sourceforge.net/DTD/sodipodi-0.dtd"
   xmlns:inkscape="http://www.inkscape.org/namespaces/inkscape"
   width="297mm"
   height="210mm"
   viewBox="0 0 297 210"
   version="1.1"
   id="svg8"
   inkscape:version="1.0.2 (e86c870, 2021-01-15)"
   sodipodi:docname="Coconuts-logo3.svg">
  <defs
     id="defs2">
    <rect
       x="52.916667"
       y="60.854167"
       width="23.306786"
       height="12.034373"
       id="rect1756" />
  </defs>
  <sodipodi:namedview
     id="base"
     pagecolor="#ffffff"
     bordercolor="#666666"
     borderopacity="1.0"
     inkscape:pageopacity="0.0"
     inkscape:pageshadow="2"
     inkscape:zoom="0.64"
     inkscape:cx="484.50161"
     inkscape:cy="209.53061"
     inkscape:document-units="mm"
     inkscape:current-layer="layer2"
     inkscape:document-rotation="0"
     showgrid="true"
     units="mm"
     inkscape:window-width="1920"
     inkscape:window-height="1017"
     inkscape:window-x="-8"
     inkscape:window-y="-8"
     inkscape:window-maximized="1">
    <inkscape:grid
       type="xygrid"
       id="grid1472" />
  </sodipodi:namedview>
  <metadata
     id="metadata5">
    <rdf:RDF>
      <cc:Work
         rdf:about="">
        <dc:format>image/svg+xml</dc:format>
        <dc:type
           rdf:resource="http://purl.org/dc/dcmitype/StillImage" />
        <dc:title></dc:title>
      </cc:Work>
    </rdf:RDF>
  </metadata>
  <g
     inkscape:groupmode="layer"
     id="layer2"
     inkscape:label="レイヤー 2">
    <path
       id="path1898"
       style="fill:#000080;fill-opacity:1;fill-rule:evenodd;stroke:none;stroke-width:3.58601;stroke-miterlimit:4;stroke-dasharray:none;stroke-opacity:1"
       d="m 71.917139,49.707188 a 57.982162,57.982162 0 0 0 -57.982164,57.982162 57.982162,57.982162 0 0 0 57.982164,57.98216 57.982162,57.982162 0 0 0 32.130061,-9.71654 79.066586,79.066586 0 0 1 -11.443033,-15.7258 37.307659,37.307659 0 0 1 -20.277285,5.99177 37.307659,37.307659 0 0 1 -37.307483,-37.30749 37.307659,37.307659 0 0 1 37.249832,-37.307494 37.307659,37.307659 0 0 1 0.05765,0 37.307659,37.307659 0 0 1 15.166783,3.222374 79.066586,79.066586 0 0 1 10.122178,-19.114964 57.982162,57.982162 0 0 0 -25.698699,-6.006178 z" />
    <path
       style="fill:#000080;fill-opacity:1;fill-rule:evenodd;stroke:none;stroke-width:1.8;stroke-miterlimit:4;stroke-dasharray:none;stroke-opacity:1"
       id="path1898-4"
       cx="60.854164"
       cy="39.6875"
       r="29.104166"
       d="" />
    <path
       style="fill:#000080;fill-opacity:1;fill-rule:evenodd;stroke:none;stroke-width:1.8;stroke-miterlimit:4;stroke-dasharray:none;stroke-opacity:1"
       id="path1898-2"
       cx="60.854164"
       cy="39.6875"
       r="29.104166"
       d="" />
    <path
       style="fill:#000080;fill-opacity:1;fill-rule:evenodd;stroke:none;stroke-width:1.8;stroke-miterlimit:4;stroke-dasharray:none;stroke-opacity:1"
       id="path1898-23"
       cx="60.854164"
       cy="39.6875"
       r="29.104166"
       d="" />
    <path
       style="fill:#000080;fill-opacity:1;fill-rule:evenodd;stroke:none;stroke-width:1.8;stroke-miterlimit:4;stroke-dasharray:none;stroke-opacity:1"
       id="path1898-23-1"
       cx="60.854164"
       cy="39.6875"
       r="29.104166"
       d="" />
  </g>
  <g
     inkscape:label="レイヤー 1"
     inkscape:groupmode="layer"
     id="layer1">
    <path
       id="path1703"
       style="fill:#008080;fill-opacity:1;fill-rule:evenodd;stroke:#008080;stroke-width:1.665;stroke-opacity:1"
       d="m 74.048711,97.598693 a 22.489584,22.489584 0 0 0 -22.444107,22.489587 22.489584,22.489584 0 0 0 22.489583,22.48958 22.489584,22.489584 0 0 0 22.489586,-22.48958 22.489584,22.489584 0 0 0 -22.489586,-22.489587 22.489584,22.489584 0 0 0 -0.04548,0 z m 0.04548,7.937497 a 14.552083,14.552083 0 0 1 14.552084,14.55209 14.552083,14.552083 0 0 1 -14.552088,14.55208 14.552083,14.552083 0 0 1 -14.552083,-14.55208 14.552083,14.552083 0 0 1 14.552083,-14.55209 z" />
    <path
       id="path1703-5"
       style="fill:#008080;fill-opacity:1;fill-rule:evenodd;stroke:#008080;stroke-width:1.665;stroke-opacity:1"
       d="m 111.09037,97.598693 a 22.489584,22.489584 0 0 0 -22.4441,22.489587 22.489584,22.489584 0 0 0 22.48958,22.48958 22.489584,22.489584 0 0 0 12.82299,-4.01423 26.458332,26.458332 0 0 1 -4.89634,-6.27196 14.552083,14.552083 0 0 1 -7.92665,2.34869 14.552083,14.552083 0 0 1 -14.552077,-14.55208 14.552083,14.552083 0 0 1 14.552077,-14.55209 14.552083,14.552083 0 0 1 7.32255,1.97663 26.458332,26.458332 0 0 1 4.58473,-6.50348 22.489584,22.489584 0 0 0 -11.90728,-3.410647 22.489584,22.489584 0 0 0 -0.0455,0 z" />
    <path
       id="path1703-3"
       style="fill:#008080;fill-opacity:1;fill-rule:evenodd;stroke:#008080;stroke-width:1.665;stroke-opacity:1"
       d="m 141.51743,97.598694 a 22.489584,22.489584 0 0 0 -22.4441,22.489586 22.489584,22.489584 0 0 0 22.48958,22.48958 22.489584,22.489584 0 0 0 22.48959,-22.48958 22.489584,22.489584 0 0 0 -22.48959,-22.489586 22.489584,22.489584 0 0 0 -0.0455,0 z m 0.0455,7.937496 a 14.552083,14.552083 0 0 1 14.55209,14.55209 14.552083,14.552083 0 0 1 -14.55209,14.55208 14.552083,14.552083 0 0 1 -14.55208,-14.55208 14.552083,14.552083 0 0 1 14.55208,-14.55209 z" />
    <text
       xml:space="preserve"
       id="text1754"
       style="font-style:normal;font-weight:normal;font-size:10.5833px;line-height:1.25;font-family:sans-serif;letter-spacing:-0.683798px;word-spacing:0px;white-space:pre;shape-inside:url(#rect1756);fill:#008080;fill-opacity:1;stroke:#008080;stroke-width:0.276904;stroke-miterlimit:4;stroke-dasharray:none;stroke-opacity:1;"
       transform="matrix(6.3481683,0,0,7.0230301,-174.8459,-354.8485)"><tspan
         x="52.916016"
         y="70.508981"><tspan
           style="fill:#008080;stroke:#008080;stroke-width:0.276904;stroke-miterlimit:4;stroke-dasharray:none;stroke-opacity:1">nuts</tspan></tspan></text>
  </g>
</svg>
